<svg width="26" height="25" viewBox="0 0 26 25" fill="none" xmlns="http://www.w3.org/2000/svg">
<g id="envelope-open" clip-path="url(#clip0_135_257)">
<path id="Vector" d="M25.7725 22.6563C25.7725 23.9507 24.7231 25 23.4287 25H3.11621C1.82178 25 0.772461 23.9507 0.772461 22.6563V9.80098C0.772465 9.44558 0.853295 9.09483 1.00884 8.77527C1.16438 8.45572 1.39056 8.17571 1.67026 7.95645C2.88672 7.00289 3.89199 6.22965 9.68784 2.0233C10.5094 1.42432 12.1395 -0.0169358 13.2725 0.00015407C14.4052 -0.0171311 16.0359 1.42457 16.8571 2.02325C22.6523 6.22916 23.659 7.00347 24.8747 7.95645C25.1544 8.17571 25.3805 8.45572 25.5361 8.77527C25.6916 9.09483 25.7725 9.44558 25.7725 9.80098V22.6563ZM22.5661 13.0564C22.441 12.8744 22.1901 12.832 22.0125 12.9633C20.897 13.7872 19.3043 14.9508 16.8571 16.7269C16.0355 17.3258 14.4054 18.767 13.2725 18.7499C12.1391 18.7667 10.5108 17.3269 9.68784 16.7269C7.24087 14.951 5.6481 13.7873 4.53247 12.9633C4.35478 12.832 4.10396 12.8744 3.97881 13.0564L3.53584 13.7007C3.47842 13.7842 3.45569 13.8867 3.47245 13.9866C3.4892 14.0866 3.54413 14.1761 3.62563 14.2362C4.74316 15.0614 6.33335 16.2231 8.76738 17.9896C9.75732 18.7113 11.5273 20.3242 13.2725 20.3125C15.0168 20.3243 16.7862 18.7123 17.7775 17.9896C20.2116 16.223 21.8018 15.0613 22.9192 14.2362C23.0007 14.1761 23.0557 14.0866 23.0724 13.9866C23.0892 13.8867 23.0665 13.7842 23.009 13.7007L22.5661 13.0564Z" fill="white"/>
</g>
<defs>
<clipPath id="clip0_135_257">
<rect width="25" height="25" fill="white" transform="translate(0.772461)"/>
</clipPath>
</defs>
</svg>
