<svg width="66" height="78" viewBox="0 0 66 78" fill="none" xmlns="http://www.w3.org/2000/svg">
<path fill-rule="evenodd" clip-rule="evenodd" d="M0 61.6953C0 59.318 1.92711 57.3909 4.30432 57.3909H7.17387C9.55108 57.3909 11.4782 59.318 11.4782 61.6953V64.5648C11.4782 66.942 9.55108 68.8691 7.17387 68.8691H4.30432C1.92711 68.8691 0 66.942 0 64.5648V61.6953ZM4.30432 60.2605C3.51192 60.2605 2.86955 60.9029 2.86955 61.6953V64.5648C2.86955 65.3572 3.51192 65.9996 4.30432 65.9996H7.17387C7.96627 65.9996 8.60864 65.3572 8.60864 64.5648V61.6953C8.60864 60.9029 7.96627 60.2605 7.17387 60.2605H4.30432Z" fill="#9483FF"/>
<path fill-rule="evenodd" clip-rule="evenodd" d="M34.4346 61.6953C34.4346 59.318 36.3617 57.3909 38.7389 57.3909H41.6085C43.9857 57.3909 45.9128 59.318 45.9128 61.6953V64.5648C45.9128 66.942 43.9857 68.8691 41.6085 68.8691H38.7389C36.3617 68.8691 34.4346 66.942 34.4346 64.5648V61.6953ZM38.7389 60.2605C37.9465 60.2605 37.3041 60.9029 37.3041 61.6953V64.5648C37.3041 65.3572 37.9465 65.9996 38.7389 65.9996H41.6085C42.4009 65.9996 43.0432 65.3572 43.0432 64.5648V61.6953C43.0432 60.9029 42.4009 60.2605 41.6085 60.2605H38.7389Z" fill="#9483FF"/>
<path fill-rule="evenodd" clip-rule="evenodd" d="M17.2173 44.478C17.2173 42.1008 19.1444 40.1736 21.5216 40.1736H24.3912C26.7684 40.1736 28.6955 42.1008 28.6955 44.478V47.3475C28.6955 49.7247 26.7684 51.6518 24.3912 51.6518H21.5216C19.1444 51.6518 17.2173 49.7247 17.2173 47.3475V44.478ZM21.5216 43.0432C20.7292 43.0432 20.0868 43.6856 20.0868 44.478V47.3475C20.0868 48.1399 20.7292 48.7823 21.5216 48.7823H24.3912C25.1836 48.7823 25.8259 48.1399 25.8259 47.3475V44.478C25.8259 43.6856 25.1836 43.0432 24.3912 43.0432H21.5216Z" fill="#9483FF"/>
<path d="M17.2173 44.478H5.3552C4.85904 43.6203 3.93169 43.0432 2.86955 43.0432C1.28474 43.0432 0 44.3279 0 45.9127C0 47.4975 1.28474 48.7823 2.86955 48.7823C3.93169 48.7823 4.85904 48.2052 5.3552 47.3475H13.0114C9.35598 49.6558 6.55815 53.1989 5.20392 57.3909H7.17387C7.52825 57.3909 7.87264 57.4338 8.20212 57.5145C9.80127 53.3153 13.1416 49.9749 17.3409 48.3758C17.2601 48.0463 17.2173 47.7019 17.2173 47.3475V44.478Z" fill="#9483FF"/>
<path d="M28.5719 48.3758C28.6527 48.0463 28.6955 47.7019 28.6955 47.3475V44.478H40.5576C41.0537 43.6203 41.9811 43.0432 43.0432 43.0432C44.628 43.0432 45.9128 44.3279 45.9128 45.9127C45.9128 47.4975 44.628 48.7823 43.0432 48.7823C41.9811 48.7823 41.0537 48.2052 40.5576 47.3475H32.9013C36.5568 49.6558 39.3546 53.1989 40.7088 57.3909H38.7389C38.3845 57.3909 38.0401 57.4338 37.7107 57.5145C36.1115 53.3153 32.7711 49.9749 28.5719 48.3758Z" fill="#9483FF"/>
<path fill-rule="evenodd" clip-rule="evenodd" d="M50.6378 1.85499C51.1982 1.29467 52.1066 1.29467 52.6669 1.85499L64.1451 13.3332C64.7054 13.8935 64.7054 14.8019 64.1451 15.3623L58.687 20.8203L56.3098 30.3295C55.9416 31.8022 54.8248 32.9721 53.3708 33.4083L23.6865 42.3136L32.5918 12.6293C33.028 11.1753 34.1979 10.0585 35.6706 9.69035L45.1798 7.31307L50.6378 1.85499ZM45.4732 10.1976L36.3666 12.4742C35.8757 12.597 35.4857 12.9692 35.3403 13.4539L27.9664 38.0337L52.5462 30.6598C53.0309 30.5144 53.4032 30.1244 53.5259 29.6335L55.8025 20.5269L45.4732 10.1976Z" fill="#9483FF"/>
<path fill-rule="evenodd" clip-rule="evenodd" d="M28.2138 37.9595L43.0439 25.8259C44.6287 25.8259 45.9134 24.5412 45.9134 22.9564C45.9134 21.3716 44.6287 20.0868 43.0439 20.0868C41.4591 20.0868 40.1743 21.3716 40.1743 22.9564L28.0406 37.7863L27.9664 38.0337L28.2138 37.9595Z" fill="#9483FF"/>
</svg>
