<svg width="64" height="64" viewBox="0 0 64 64" fill="none" xmlns="http://www.w3.org/2000/svg">
<g id="person">
<g id="Subtract">
<path d="M32 32C40.8366 32 48 24.8366 48 16C48 7.16344 40.8366 0 32 0C23.1634 0 16 7.16344 16 16C16 24.8366 23.1634 32 32 32ZM42.6667 16C42.6667 21.891 37.891 26.6667 32 26.6667C26.109 26.6667 21.3333 21.891 21.3333 16C21.3333 10.109 26.109 5.33333 32 5.33333C37.891 5.33333 42.6667 10.109 42.6667 16Z" fill="#9483FF"/>
<path d="M64 58.6667C64 64 58.6667 64 58.6667 64H5.33333C5.33333 64 0 64 0 58.6667C0 53.3333 5.33333 37.3333 32 37.3333C58.6667 37.3333 64 53.3333 64 58.6667ZM58.6666 58.6481C58.659 57.3319 57.8465 53.3891 54.2287 49.7712C50.75 46.2925 44.2085 42.6667 31.9999 42.6667C19.7914 42.6667 13.2499 46.2925 9.77118 49.7712C6.15336 53.3891 5.34093 57.3319 5.33333 58.6481H58.6666Z" fill="#9483FF"/>
</g>
</g>
</svg>
