<svg width="22" height="22" viewBox="0 0 22 22" fill="none" xmlns="http://www.w3.org/2000/svg">
<g id="Frame" clip-path="url(#clip0_47_712)">
<path id="Vector" d="M20.1398 16.8022C20.1398 17.1322 20.0665 17.4713 19.9107 17.8013C19.7548 18.1313 19.5532 18.443 19.2873 18.7363C18.8382 19.2313 18.3432 19.5888 17.784 19.818C17.234 20.0472 16.6382 20.1663 15.9965 20.1663C15.0615 20.1663 14.0623 19.9463 13.0082 19.4972C11.954 19.048 10.8998 18.443 9.85482 17.6822C8.78975 16.9031 7.7847 16.0451 6.84815 15.1155C5.92119 14.1824 5.06624 13.1803 4.29065 12.118C3.53898 11.073 2.93398 10.028 2.49398 8.99218C2.05398 7.94718 1.83398 6.94801 1.83398 5.99467C1.83398 5.37134 1.94398 4.77551 2.16398 4.22551C2.38398 3.66634 2.73232 3.15301 3.21815 2.69467C3.80482 2.11717 4.44648 1.83301 5.12482 1.83301C5.38148 1.83301 5.63815 1.88801 5.86732 1.99801C6.10565 2.10801 6.31648 2.27301 6.48148 2.51134L8.60815 5.50884C8.77315 5.73801 8.89232 5.94884 8.97482 6.15051C9.05732 6.34301 9.10315 6.53551 9.10315 6.70967C9.10315 6.92967 9.03899 7.14967 8.91065 7.36051C8.79149 7.57134 8.61732 7.79134 8.39732 8.01134L7.70065 8.73551C7.59982 8.83634 7.55398 8.95551 7.55398 9.10217C7.55398 9.17551 7.56315 9.23967 7.58149 9.31301C7.60899 9.38634 7.63649 9.44134 7.65482 9.49634C7.81982 9.79884 8.10398 10.193 8.50732 10.6697C8.91982 11.1463 9.35982 11.6322 9.83648 12.118C10.3315 12.6038 10.8082 13.053 11.294 13.4655C11.7707 13.8688 12.1648 14.1438 12.4765 14.3088C12.5223 14.3272 12.5773 14.3547 12.6415 14.3822C12.7148 14.4097 12.7882 14.4188 12.8707 14.4188C13.0265 14.4188 13.1457 14.3638 13.2465 14.263L13.9432 13.5755C14.1723 13.3463 14.3923 13.1722 14.6032 13.0622C14.814 12.9338 15.0248 12.8697 15.254 12.8697C15.4282 12.8697 15.6115 12.9063 15.8132 12.9888C16.0148 13.0713 16.2257 13.1905 16.4548 13.3463L19.489 15.5005C19.7273 15.6655 19.8923 15.858 19.9932 16.0872C20.0848 16.3163 20.1398 16.5455 20.1398 16.8022Z" stroke="white" stroke-width="2" stroke-miterlimit="10"/>
</g>
<defs>
<clipPath id="clip0_47_712">
<rect width="22" height="22" fill="white"/>
</clipPath>
</defs>
</svg>
