<svg xmlns="http://www.w3.org/2000/svg" width="24" height="24" viewBox="0 0 24 24" fill="none">
<g clip-path="url(#clip0_17_397)">
<path d="M19.955 16.773L15.182 12L19.955 7.22703C20.5406 6.64134 20.5406 5.69139 19.955 5.10571L18.8943 4.04505C18.3086 3.45936 17.3587 3.45936 16.773 4.04505L12 8.81802L7.22703 4.04505C6.64135 3.45936 5.69139 3.45936 5.10571 4.04505L4.04505 5.10571C3.45937 5.69139 3.45937 6.64134 4.04505 7.22703L8.81802 12L4.04505 16.773C3.45937 17.3587 3.45937 18.3086 4.04505 18.8943L5.10571 19.955C5.69139 20.5406 6.64135 20.5406 7.22703 19.955L12 15.182L16.773 19.955C17.3587 20.5406 18.3086 20.5406 18.8943 19.955L19.955 18.8943C20.5406 18.3086 20.5406 17.3587 19.955 16.773Z" fill="#624DE7"/>
</g>
<defs>
<clipPath id="clip0_17_397">
<rect width="24" height="24" fill="white"/>
</clipPath>
</defs>
</svg>