<svg width="29" height="29" viewBox="0 0 29 29" fill="none" xmlns="http://www.w3.org/2000/svg">
<g id="star-half-alt" clip-path="url(#clip0_17_524)">
<path id="Vector" d="M26.9393 10.1481L19.4002 9.05052L16.0311 2.23149C15.7283 1.62216 15.1375 1.31415 14.5467 1.31415C13.9595 1.31415 13.3728 1.61804 13.069 2.23149L9.69884 9.05001L2.15922 10.1466C0.807155 10.3423 0.2653 12.0055 1.24548 12.9584L6.69957 18.2636L5.40881 25.7569C5.22544 26.8272 6.07994 27.6858 7.03695 27.6858C7.29088 27.6858 7.55202 27.6256 7.80286 27.4927L14.5477 23.9552L21.2921 27.4937C21.5424 27.625 21.803 27.6848 22.0559 27.6848C23.014 27.6848 23.87 26.8293 23.6866 25.7584L22.3974 18.2646L27.8525 12.9604C28.8332 12.0076 28.2914 10.3439 26.9393 10.1481ZM20.6688 16.4938L19.7355 17.4014L19.956 18.6829L20.9614 24.5264L15.701 21.7661L14.5482 21.1614L14.5498 4.82385L17.1782 10.144L17.754 11.3096L19.0422 11.4971L24.9259 12.3537L20.6688 16.4938Z" fill="#FF9900"/>
</g>
<defs>
<clipPath id="clip0_17_524">
<rect width="27.6078" height="27.6078" fill="white" transform="translate(0.745117 0.696075)"/>
</clipPath>
</defs>
</svg>
