<svg width="73" height="73" viewBox="0 0 73 73" fill="none" xmlns="http://www.w3.org/2000/svg">
<path fill-rule="evenodd" clip-rule="evenodd" d="M0 0H4.5625V68.4375H73V73H0V0ZM45.625 15.9688C45.625 14.7089 46.6464 13.6875 47.9062 13.6875H66.1562C67.4161 13.6875 68.4375 14.7089 68.4375 15.9688V34.2188C68.4375 35.4786 67.4161 36.5 66.1562 36.5C64.8964 36.5 63.875 35.4786 63.875 34.2188V22.3595L47.3906 42.5071C46.9825 43.0059 46.3824 43.3088 45.7386 43.3409C45.0949 43.373 44.4677 43.1313 44.0119 42.6756L32.2122 30.8759L15.5324 53.8105C14.7914 54.8294 13.3647 55.0547 12.3457 54.3137C11.3268 53.5726 11.1015 52.1459 11.8426 51.127L30.0926 26.0332C30.485 25.4937 31.0939 25.1529 31.7591 25.1007C32.4242 25.0486 33.0788 25.2902 33.5506 25.7619L45.4556 37.667L61.3423 18.25H47.9062C46.6464 18.25 45.625 17.2286 45.625 15.9688Z" fill="#9483FF"/>
</svg>
