<svg width="65" height="65" viewBox="0 0 65 65" fill="none" xmlns="http://www.w3.org/2000/svg">
<path d="M4.0625 0L0 4.0625L8.94109 16.58C9.70367 17.6476 10.9349 18.2812 12.2469 18.2812H12.536C13.6134 18.2812 14.6468 18.7093 15.4086 19.4711L26.2758 30.3383L15.6446 41.1223C14.5487 40.7987 13.3884 40.625 12.1875 40.625C5.45653 40.625 0 46.0815 0 52.8125C0 59.5435 5.45653 65 12.1875 65C18.9185 65 24.375 59.5435 24.375 52.8125C24.375 51.6117 24.2013 50.4514 23.8777 49.3554L34.6617 38.7242L38.5938 42.6562L37.3565 46.3681C36.8699 47.8279 37.2498 49.4373 38.3379 50.5254L51.6226 63.8101C52.4159 64.6034 53.4556 65 54.4952 65C55.5349 65 56.5746 64.6034 57.3679 63.8101L63.8101 57.3679C64.6034 56.5746 65 55.5349 65 54.4952C65 53.4556 64.6034 52.4159 63.8101 51.6226L50.5254 38.3379C49.4373 37.2498 47.8279 36.8699 46.3681 37.3565L42.6562 38.5938L38.7532 34.6907L49.6402 23.958C50.6517 24.23 51.7152 24.375 52.8125 24.375C59.5435 24.375 65 18.9185 65 12.1875C65 11.0957 64.8565 10.0375 64.5872 9.03067L55.8893 17.7286L48.75 16.2499L47.2714 9.11073L55.9693 0.41281C54.9625 0.143552 53.9043 0 52.8125 0C46.0815 0 40.625 5.45653 40.625 12.1875C40.625 13.2849 40.77 14.3484 41.042 15.3599L30.3093 26.2468L19.4711 15.4086C18.7093 14.6468 18.2812 13.6134 18.2812 12.536V12.2469C18.2812 10.9349 17.6476 9.70367 16.58 8.94109L4.0625 0ZM43.2512 43.2512C44.0444 42.4579 45.3306 42.4579 46.1238 43.2512L57.9628 55.0902C58.7561 55.8834 58.7561 57.1695 57.9628 57.9628C57.1695 58.7561 55.8834 58.7561 55.0902 57.9628L43.2512 46.1238C42.4579 45.3306 42.4579 44.0444 43.2512 43.2512ZM12.1875 44.6874L14.1011 45.6706L16.25 45.776L17.4157 47.5843L19.224 48.7499L19.3293 50.8988L20.3125 52.8124L19.3293 54.7261L19.224 56.8749L17.4157 58.0406L16.25 59.8489L14.1011 59.9542L12.1875 60.9374L10.2739 59.9542L8.125 59.8489L6.95933 58.0406L5.15104 56.8749L5.04569 54.7261L4.0625 52.8124L5.04569 50.8988L5.15104 48.7499L6.95933 47.5843L8.125 45.776L10.2739 45.6706L12.1875 44.6874Z" fill="#9483FF"/>
</svg>
