<svg width="100" height="100" viewBox="0 0 100 100" fill="none" xmlns="http://www.w3.org/2000/svg">
<path id="Ellipse 73" d="M95 50C97.7614 50 100.026 52.2443 99.7503 54.9919C98.803 64.4336 95.183 73.4488 89.2658 80.9547C82.3128 89.7746 72.5929 95.9967 61.6723 98.6185C50.7516 101.24 39.2663 100.109 29.067 95.4072C18.8677 90.7052 10.5484 82.7064 5.44968 72.6995C0.350932 62.6927 -1.23031 51.2606 0.960735 40.2455C3.15178 29.2303 8.98751 19.2736 17.5276 11.9797C26.0677 4.68579 36.8147 0.479475 48.037 0.0385485C57.5874 -0.33669 67.0087 2.03371 75.2039 6.81704C77.5889 8.20904 78.0735 11.3602 76.4503 13.5942C74.8272 15.8283 71.7123 16.2924 69.2933 14.9604C62.9444 11.4646 55.7342 9.74384 48.4296 10.0308C39.4518 10.3836 30.8541 13.7486 24.0221 19.5838C17.19 25.4189 12.5214 33.3843 10.7686 42.1964C9.01575 51.0085 10.2807 60.1541 14.3597 68.1596C18.4387 76.1651 25.0942 82.5642 33.2536 86.3257C41.4131 90.0873 50.6013 90.9922 59.3378 88.8948C68.0743 86.7973 75.8503 81.8196 81.4127 74.7638C85.9384 69.0229 88.7844 62.1783 89.688 54.9871C90.0322 52.2472 92.2386 50 95 50Z" fill="white"/>
</svg>
