<svg width="100" height="100" viewBox="0 0 100 100" fill="currentColor" xmlns="http://www.w3.org/2000/svg">
<path id="Ellipse 73" d="M95 50C97.7614 50 100.026 52.2443 99.7503 54.992C98.7368 65.0939 94.6651 74.6923 88.0203 82.4724C80.2885 91.5252 69.5803 97.522 57.8217 99.3844C46.0631 101.247 34.0259 98.8524 23.8751 92.632C13.7243 86.4116 6.12607 76.7733 2.44717 65.4509C-1.23172 54.1284 -0.749883 41.8648 3.80602 30.8658C8.36193 19.8669 16.6929 10.8545 27.3005 5.44968C37.908 0.0448468 50.0961 -1.3977 61.6723 1.3815C71.6211 3.77 80.5569 9.14198 87.3146 16.7189C89.1526 18.7798 88.6398 21.9265 86.4058 23.5497C84.1717 25.1728 81.0658 24.6515 79.1768 22.6372C73.857 16.9646 66.97 12.9375 59.3378 11.1052C50.0768 8.88184 40.3264 10.0359 31.8404 14.3597C23.3543 18.6836 16.6895 25.8935 13.0448 34.6927C9.40009 43.4918 9.01462 53.3027 11.9577 62.3607C14.9009 71.4187 20.9794 79.1293 29.1001 84.1056C37.2207 89.0819 46.8505 90.9974 56.2574 89.5075C65.6642 88.0176 74.2308 83.2201 80.4162 75.9779C85.5138 70.0095 88.7184 62.7034 89.688 54.9872C90.0322 52.2473 92.2386 50 95 50Z" fill="currentColor"/>
</svg>
